
<svg width="12px" height="12px" viewBox="16 61 12 12" version="1.1" xmlns="http://www.w3.org/2000/svg" xmlns:xlink="http://www.w3.org/1999/xlink">
    <!-- Generator: Sketch 40 (33762) - http://www.bohemiancoding.com/sketch -->
    <desc>Created with Sketch.</desc>
    <defs></defs>
    <g id="Group-5" stroke="none" stroke-width="1" fill="none" fill-rule="evenodd" transform="translate(16.000000, 61.000000)">
        <path d="M6,11.25 C3.105,11.25 0.75,8.895 0.75,6 C0.75,3.105 3.105,0.75 6,0.75 C8.895,0.75 11.25,3.105 11.25,6 C11.25,8.895 8.895,11.25 6,11.25 M6,0 C2.6865,0 0,2.6865 0,6 C0,9.3135 2.6865,12 6,12 C9.3135,12 12,9.3135 12,6 C12,2.6865 9.3135,0 6,0" id="Fill-1" fill="#999999"></path>
        <path d="M8.89125,7.189425 L6.23325,5.981175 L6.23325,2.646675 C6.23325,2.439675 6.06525,2.271675 5.85825,2.271675 C5.65125,2.271675 5.48325,2.439675 5.48325,2.646675 L5.48325,6.222675 C5.48325,6.369675 5.56875,6.503175 5.703,6.563925 L8.58075,7.871925 C8.631,7.895175 8.68425,7.905675 8.736,7.905675 C8.8785,7.905675 9.015,7.823925 9.07725,7.685925 C9.1635,7.497675 9.0795,7.274925 8.89125,7.189425" id="Fill-3" fill="#999999"></path>
    </g>
</svg>