<?xml version="1.0" standalone="no"?><!DOCTYPE svg PUBLIC "-//W3C//DTD SVG 1.1//EN" "http://www.w3.org/Graphics/SVG/1.1/DTD/svg11.dtd"><svg class="icon" style="" viewBox="0 0 1024 1024" version="1.1" xmlns="http://www.w3.org/2000/svg" p-id="2597" xmlns:xlink="http://www.w3.org/1999/xlink" width="64" height="64"><defs><style type="text/css"><![CDATA[

]]></style></defs><path d="M501.542322 539.680433l344.646458 0 0 60.968583-344.646458 0 0-60.968583Z" p-id="2598" fill="#ffffff"></path><path d="M501.542322 637.241422l344.646458 0 0 60.968583-344.646458 0 0-60.968583Z" p-id="2599" fill="#ffffff"></path><path d="M501.542322 442.11842l344.646458 0 0 60.968583-344.646458 0 0-60.968583Z" p-id="2600" fill="#ffffff"></path><path d="M501.542322 734.802412l240.704131 0 0 60.968583-240.704131 0 0-60.968583Z" p-id="2601" fill="#ffffff"></path><path d="M97.423355 218.123856l748.765425 0 0 71.679529-748.765425 0 0-71.679529Z" p-id="2602" fill="#ffffff"></path><path d="M1023.981069 855.29467 1023.981069 214.399021c-0.208754-0.62217-0.416486-1.24741-0.729617-1.977028l-77.328179 0L945.923272 63.569828 0.025071 63.569828l0 896.859321 65.266469 0 958.690552 0L1023.981069 855.29467zM924.436912 937.745521 28.336884 937.745521 28.336884 84.70724l896.099005 0L924.435888 937.745521z" p-id="2603" fill="#ffffff"></path><path d="M97.423355 442.11842l350.574471 0 0 353.653599-350.574471 0 0-353.653599Z" p-id="2604" fill="#ffffff"></path></svg>