<svg width="20px" height="20px" viewBox="996 1618 20 20" version="1.1" xmlns="http://www.w3.org/2000/svg" xmlns:xlink="http://www.w3.org/1999/xlink">
    <!-- Generator: Sketch 40 (33762) - http://www.bohemiancoding.com/sketch -->
    <desc>Created with Sketch.</desc>
    <defs></defs>
    <path d="M1011.83333,1629.10933 L1010.116,1627.36267 L1007.52267,1630 L1006.65733,1630.87867 L1005.79067,1630 L1004.06133,1628.24133 L1000.60267,1631.75867 L999.737333,1630.87867 L1003.19733,1627.36133 L1004.06267,1626.48133 L1004.928,1627.36133 L1006.65867,1629.12 L1009.25067,1626.484 L1007.504,1624.70933 L1012.26667,1624.268 L1011.83333,1629.10933 Z M1006,1618 C1000.47733,1618 996,1622.47733 996,1628 C996,1633.524 1000.47733,1638 1006,1638 C1011.52267,1638 1016,1633.524 1016,1628 C1016,1622.47733 1011.52267,1618 1006,1618 L1006,1618 Z" id="Fill-7-Copy" stroke="none" fill="#1478F0" fill-rule="evenodd"></path>
</svg>